<svg id="Layer_1" data-name="Layer 1" xmlns="http://www.w3.org/2000/svg" viewBox="0 0 122.76 37.6"><defs><style>.cls-1{fill:#767677;}.cls-2{fill:#757575;}.cls-3{fill:#8ab4f8;}.cls-4{fill:#4285f4;}.cls-5{fill:#246fdb;}</style></defs><title>google-tag-manager-logo</title><path class="cls-1" d="M59.57,8.3h-7v2.1h5c-.2,2.9-2.7,4.2-5,4.2a5.46,5.46,0,0,1-5.5-5.5V9a5.13,5.13,0,0,1,1.6-3.9,5.7,5.7,0,0,1,3.9-1.6A4.76,4.76,0,0,1,56.27,5l1.5-1.5a7.4,7.4,0,0,0-5.3-2.1,7.67,7.67,0,0,0-7.79,7.5A7.43,7.43,0,0,0,45.77,13a7.63,7.63,0,0,0,6.8,3.7,6.75,6.75,0,0,0,7.1-7,7.08,7.08,0,0,0-.1-1.4Zm5.81-1.5a4.9,4.9,0,0,0-5,4.8h0v.1a5,5,0,0,0,9.9.1,4.86,4.86,0,0,0-4.9-5Zm0,2a2.84,2.84,0,0,1,2.8,3,2.81,2.81,0,1,1-5.61,0,2.8,2.8,0,0,1,2.81-3Zm10.69-2a4.83,4.83,0,0,0-4.9,4.8h0v.1a5,5,0,0,0,9.9.1,4.93,4.93,0,0,0-5-5Zm0,2a2.85,2.85,0,0,1,2.81,3,2.81,2.81,0,1,1-5.61,0,2.79,2.79,0,0,1,2.8-3Zm10.5-2a4.9,4.9,0,0,0,0,9.8,3.26,3.26,0,0,0,2.7-1.2v1a2.45,2.45,0,0,1-2.6,2.7,2.67,2.67,0,0,1-2.5-1.8l-1.9.8a4.76,4.76,0,0,0,4.4,2.9c2.6,0,4.6-1.7,4.6-5.1V7.1h-2.1v.8a3.31,3.31,0,0,0-2.6-1.1Zm.21,1.9a2.76,2.76,0,0,1,2.6,3,2.71,2.71,0,1,1-5.4,0,3,3,0,0,1,2.8-3Zm13.69-1.9a4.66,4.66,0,0,0-4.59,4.9,4.78,4.78,0,0,0,4.59,4.9h.2a4.78,4.78,0,0,0,4.1-2.2l-1.7-1.1a2.71,2.71,0,0,1-4.8-.1l6.6-2.7-.3-.8a4.32,4.32,0,0,0-4.1-2.9Zm.1,1.9a1.9,1.9,0,0,1,1.81,1.1L98,11.7a2.81,2.81,0,0,1,2.6-3Zm-7.79,7.7H95V1.9H92.78Z"/><path class="cls-2" d="M48.77,25.15V34H47.48v-8.8h-2.8V23.92h6.89v1.23Z"/><path class="cls-2" d="M54.24,26.86a3.21,3.21,0,0,1,2.26.77,2.7,2.7,0,0,1,.82,2.09V34H56.09V33H56a2.45,2.45,0,0,1-2.12,1.17A2.76,2.76,0,0,1,52,33.5a2.15,2.15,0,0,1-.77-1.68,2,2,0,0,1,.81-1.69,3.39,3.39,0,0,1,2.15-.63,3.78,3.78,0,0,1,1.89.42v-.3a1.47,1.47,0,0,0-.53-1.14A1.85,1.85,0,0,0,54.31,28a2,2,0,0,0-1.71.91l-1.13-.71A3.15,3.15,0,0,1,54.24,26.86Zm-1.66,5a1,1,0,0,0,.42.84A1.61,1.61,0,0,0,54,33a2,2,0,0,0,1.45-.61A1.86,1.86,0,0,0,56.09,31a2.62,2.62,0,0,0-1.68-.48,2.21,2.21,0,0,0-1.31.38A1.12,1.12,0,0,0,52.58,31.85Z"/><path class="cls-2" d="M61.75,37.2a3.81,3.81,0,0,1-1.08-.15,3.19,3.19,0,0,1-.92-.41,3,3,0,0,1-.7-.63,2.48,2.48,0,0,1-.45-.81l1.22-.51a1.91,1.91,0,0,0,.73,1,2,2,0,0,0,1.2.36,2.13,2.13,0,0,0,1.64-.63A2.45,2.45,0,0,0,64,33.66V33h-.06a2.52,2.52,0,0,1-1,.86,2.91,2.91,0,0,1-1.35.31,3,3,0,0,1-2.31-1.05,4,4,0,0,1,0-5.19,3,3,0,0,1,2.31-1.07,2.92,2.92,0,0,1,1.35.32,2.52,2.52,0,0,1,1,.86H64v-.95h1.23v6.57a3.49,3.49,0,0,1-.94,2.59A3.41,3.41,0,0,1,61.75,37.2Zm0-4.2a2,2,0,0,0,1.56-.69A2.54,2.54,0,0,0,64,30.52a2.57,2.57,0,0,0-.63-1.78,2.08,2.08,0,0,0-3.11,0,2.57,2.57,0,0,0-.63,1.78,2.53,2.53,0,0,0,.63,1.78A2,2,0,0,0,61.79,33Z"/><path class="cls-2" d="M71.37,34H70.08v-10h1.29L74.86,30h.06l3.48-6.11h1.29V34H78.4V28l.06-1.68H78.4l-3.13,5.5h-.76l-3.14-5.5h-.05L71.37,28Z"/><path class="cls-2" d="M83.88,26.86a3.21,3.21,0,0,1,2.26.77A2.7,2.7,0,0,1,87,29.72V34H85.73V33h-.06a2.46,2.46,0,0,1-2.13,1.17,2.75,2.75,0,0,1-1.89-.67,2.15,2.15,0,0,1-.77-1.68,2,2,0,0,1,.81-1.69,3.39,3.39,0,0,1,2.15-.63,3.83,3.83,0,0,1,1.89.42v-.3a1.47,1.47,0,0,0-.53-1.14A1.85,1.85,0,0,0,84,28a2,2,0,0,0-1.71.91l-1.13-.71A3.15,3.15,0,0,1,83.88,26.86Zm-1.67,5a1,1,0,0,0,.43.84,1.61,1.61,0,0,0,1,.34,2,2,0,0,0,1.45-.61A1.86,1.86,0,0,0,85.73,31a2.62,2.62,0,0,0-1.68-.48,2.21,2.21,0,0,0-1.31.38A1.13,1.13,0,0,0,82.21,31.85Z"/><path class="cls-2" d="M88.42,27.09h1.23V28h.06a2.16,2.16,0,0,1,.9-.84,2.66,2.66,0,0,1,1.27-.34,2.54,2.54,0,0,1,1.94.72,2.92,2.92,0,0,1,.68,2.06V34H93.21V29.72A1.52,1.52,0,0,0,91.51,28a1.6,1.6,0,0,0-1.28.62,2.26,2.26,0,0,0-.52,1.49V34H88.42Z"/><path class="cls-2" d="M98.55,26.86a3.18,3.18,0,0,1,2.25.77,2.7,2.7,0,0,1,.83,2.09V34h-1.24V33h0a2.46,2.46,0,0,1-2.13,1.17,2.76,2.76,0,0,1-1.9-.67,2.14,2.14,0,0,1-.76-1.68,2,2,0,0,1,.8-1.69,3.41,3.41,0,0,1,2.15-.63,3.78,3.78,0,0,1,1.89.42v-.3a1.44,1.44,0,0,0-.53-1.14A1.83,1.83,0,0,0,98.62,28a2,2,0,0,0-1.71.91l-1.14-.71A3.17,3.17,0,0,1,98.55,26.86Zm-1.67,5a1,1,0,0,0,.42.84,1.62,1.62,0,0,0,1,.34,2,2,0,0,0,1.45-.61,1.89,1.89,0,0,0,.63-1.41,2.62,2.62,0,0,0-1.68-.48,2.21,2.21,0,0,0-1.31.38A1.12,1.12,0,0,0,96.88,31.85Z"/><path class="cls-2" d="M106.05,37.2a3.81,3.81,0,0,1-1.08-.15,3.13,3.13,0,0,1-.91-.41,3.08,3.08,0,0,1-.71-.63,2.48,2.48,0,0,1-.45-.81l1.22-.51a1.91,1.91,0,0,0,.73,1,2,2,0,0,0,1.2.36,2.13,2.13,0,0,0,1.64-.63,2.45,2.45,0,0,0,.59-1.73V33h-.06a2.56,2.56,0,0,1-1,.86,3,3,0,0,1-1.35.31,3.06,3.06,0,0,1-2.32-1.05,4,4,0,0,1,0-5.19,3,3,0,0,1,2.32-1.07,3,3,0,0,1,1.35.32,2.56,2.56,0,0,1,1,.86h.06v-.95h1.23v6.57a3.49,3.49,0,0,1-.94,2.59A3.41,3.41,0,0,1,106.05,37.2Zm0-4.2a2,2,0,0,0,1.56-.69,2.54,2.54,0,0,0,.63-1.79,2.57,2.57,0,0,0-.63-1.78,2,2,0,0,0-1.56-.7,2,2,0,0,0-1.55.7,2.57,2.57,0,0,0-.63,1.78,2.53,2.53,0,0,0,.63,1.78A2,2,0,0,0,106.09,33Z"/><path class="cls-2" d="M114.09,34.17a3.27,3.27,0,0,1-2.49-1,3.68,3.68,0,0,1-1-2.62,3.73,3.73,0,0,1,.95-2.61A3.16,3.16,0,0,1,114,26.86a3.12,3.12,0,0,1,2.43,1,4,4,0,0,1,.9,2.77v.14h-5.39a2.19,2.19,0,0,0,.67,1.62,2.17,2.17,0,0,0,3.47-.61l1.15.56A3.49,3.49,0,0,1,116,33.69,3.63,3.63,0,0,1,114.09,34.17ZM112,29.69H116a1.72,1.72,0,0,0-.58-1.18A2.05,2.05,0,0,0,114,28a1.86,1.86,0,0,0-1.25.45A2.2,2.2,0,0,0,112,29.69Z"/><path class="cls-2" d="M119.81,34h-1.29V27.09h1.23v1.12h.06a1.82,1.82,0,0,1,.8-.93,2.24,2.24,0,0,1,1.2-.39,2.44,2.44,0,0,1,1,.17l-.39,1.25a2,2,0,0,0-.76-.1,1.64,1.64,0,0,0-1.26.59,2,2,0,0,0-.54,1.37Z"/><path class="cls-3" d="M22.07,36.17l-6.53-6.53,14-14.17,6.65,6.65Z"/><path class="cls-4" d="M22.12,8,15.47,1.38,1.38,15.47a4.69,4.69,0,0,0,0,6.64h0L15.47,36.21,22,29.66,11.34,18.8Z"/><path class="cls-3" d="M36.21,15.47,22.12,1.38A4.7,4.7,0,0,0,15.47,8l14.1,14.1a4.7,4.7,0,0,0,6.65-6.65Z"/><circle class="cls-5" cx="18.74" cy="32.94" r="4.66"/></svg>