<?xml version="1.0" encoding="utf-8"?>
<!-- Generator: Adobe Illustrator 25.0.1, SVG Export Plug-In . SVG Version: 6.00 Build 0)  -->
<svg version="1.0" id="katman_1" xmlns="http://www.w3.org/2000/svg" xmlns:xlink="http://www.w3.org/1999/xlink" x="0px" y="0px"
	 viewBox="0 0 636 442" style="enable-background:new 0 0 636 442;" xml:space="preserve">
<style type="text/css">
	.st0{fill-rule:evenodd;clip-rule:evenodd;fill:#7F54B3;}
	.st1{fill-rule:evenodd;clip-rule:evenodd;}
</style>
<g>
	<path class="st0" d="M219.3,169H78.1c-8.9,0-16.2,7.3-16.1,16.2v53.9c0,8.9,7.2,16.2,16.2,16.2H145l30.6,17l-6.9-17h50.6
		c8.9,0,16.2-7.2,16.2-16.2v-53.9C235.4,176.2,228.2,169,219.3,169z M75.1,181.5c-2,0.1-3.5,0.9-4.5,2.2c-1,1.3-1.3,2.9-1.1,4.8
		c4.2,26.6,8.1,44.5,11.7,53.8c1.4,3.4,3,5,5,4.9c3-0.2,6.5-4.3,10.7-12.3c2.2-4.5,5.6-11.3,10.2-20.4c3.8,13.4,9.1,23.5,15.7,30.2
		c1.8,1.9,3.8,2.8,5.6,2.6c1.6-0.1,2.9-1,3.8-2.6c0.7-1.3,1-2.9,0.9-4.7c-0.4-6.5,0.2-15.5,2-27c1.8-11.9,4.1-20.5,6.9-25.6
		c0.6-1.1,0.8-2.1,0.7-3.4c-0.1-1.6-0.9-3-2.2-4s-2.8-1.6-4.5-1.4c-2.1,0.1-3.6,1.1-4.7,3.1c-4.4,8-7.5,21-9.4,39
		c-2.7-6.8-5-14.8-6.7-24.2c-0.8-4.2-2.7-6.2-5.8-6c-2.1,0.1-3.9,1.6-5.3,4.3l-15.5,29.6c-2.6-10.3-5-22.8-7.2-37.7
		C80.8,182.9,78.7,181.2,75.1,181.5z M211.8,186.6c5,1.1,8.8,3.8,11.3,8.2c2.3,3.8,3.4,8.4,3.4,14c0,7.3-1.8,14-5.5,20.1
		c-4.3,7.1-9.8,10.6-16.7,10.6c-1.2,0-2.5-0.1-3.8-0.4c-5-1.1-8.8-3.8-11.3-8.2c-2.3-3.9-3.4-8.6-3.4-14c0-7.3,1.8-14,5.5-20
		c4.3-7.1,9.9-10.6,16.7-10.6C209.1,186.2,210.4,186.3,211.8,186.6z M208.8,224.9c2.6-2.3,4.4-5.8,5.4-10.5c0.3-1.6,0.5-3.4,0.5-5.2
		c0-2.1-0.4-4.3-1.3-6.5c-1.1-2.8-2.5-4.3-4.2-4.6c-2.6-0.5-5,0.9-7.4,4.4c-1.9,2.7-3.1,5.5-3.8,8.4c-0.4,1.6-0.5,3.4-0.5,5.2
		c0,2.1,0.4,4.3,1.3,6.5c1.1,2.8,2.5,4.3,4.2,4.6C204.8,227.6,206.7,226.8,208.8,224.9z M178.6,194.8c-2.6-4.5-6.4-7.2-11.3-8.2
		c-1.3-0.3-2.6-0.4-3.8-0.4c-6.8,0-12.3,3.5-16.7,10.6c-3.7,6-5.5,12.7-5.5,20c0,5.5,1.1,10.1,3.4,14c2.6,4.5,6.3,7.2,11.3,8.2
		c1.3,0.3,2.6,0.4,3.8,0.4c6.9,0,12.4-3.5,16.7-10.6c3.7-6.1,5.5-12.8,5.5-20.1C182,203.2,180.9,198.6,178.6,194.8z M169.7,214.4
		c-1,4.7-2.8,8.2-5.4,10.5c-2.1,1.8-4,2.6-5.7,2.3c-1.7-0.4-3.1-1.8-4.2-4.6c-0.9-2.2-1.3-4.4-1.3-6.5c0-1.8,0.1-3.5,0.5-5.2
		c0.6-2.9,1.8-5.7,3.8-8.4c2.3-3.5,4.8-4.9,7.4-4.4c1.7,0.4,3.1,1.8,4.2,4.6c0.9,2.2,1.3,4.4,1.3,6.5
		C170.2,211,170.1,212.8,169.7,214.4z"/>
	<path class="st1" d="M253.4,194.2c-4.8,4.7-7.1,10.6-7.1,17.9c0,7.7,2.3,14,7,18.8c4.7,4.8,10.8,7.2,18.4,7.2
		c2.2,0,4.7-0.4,7.4-1.1v-11.5c-2.5,0.7-4.6,1.1-6.5,1.1c-3.8,0-6.7-1.3-9-3.8c-2.3-2.6-3.4-6-3.4-10.3c0-4,1.1-7.4,3.3-9.9
		c2.3-2.6,5-3.9,8.4-3.9c2.2,0,4.5,0.4,7.1,1.1v-11.5c-2.3-0.6-5-0.9-7.7-0.9C264.1,187.2,258.1,189.5,253.4,194.2z M302.6,187.2
		c-6.5,0-11.6,2.2-15.3,6.5c-3.7,4.3-5.5,10.4-5.5,18.2c0,8.4,1.8,14.9,5.5,19.4c3.6,4.5,8.9,6.7,15.9,6.7c6.7,0,11.9-2.3,15.5-6.7
		c3.6-4.5,5.5-10.8,5.5-18.9c0-8.1-1.8-14.3-5.5-18.7C314.8,189.3,309.5,187.2,302.6,187.2z M308.2,224c-1.3,2-3.2,3-5.6,3
		c-2.3,0-4-1-5.2-3c-1.2-2-1.8-6-1.8-12c0-9.3,2.3-13.9,7.1-13.9c5,0,7.5,4.7,7.5,14.1C310.2,218.1,309.5,222,308.2,224z
		 M359.2,188.5l-2.6,10.8c-0.6,2.8-1.3,5.6-1.8,8.5l-1.4,7.5c-1.3-7.5-3.2-16.4-5.5-26.9h-16.4l-6.2,48.3h12.3l3.3-33.3l8.4,33.3
		h8.8l8.1-33.2l3.5,33.2h12.9l-6.5-48.3H359.2z M418.2,188.5l-2.6,10.8c-0.6,2.8-1.3,5.6-1.8,8.5l-1.4,7.5
		c-1.3-7.5-3.2-16.4-5.5-26.9h-16.4l-6.2,48.3h12.3l3.3-33.3l8.4,33.3h8.8l8-33.2l3.5,33.2h12.9l-6.5-48.3H418.2z M458.4,217.7h11.6
		v-10h-11.6v-8.9h13.3v-10.3h-26.4v48.3h26.4v-10.3h-13.4V217.7z M508.5,210.1c1.3-2.2,2.1-4.5,2.1-6.8c0-4.5-1.8-8.2-5.3-10.8
		c-3.5-2.6-8.4-4-14.5-4h-15.2v48.3h13v-22h0.2l10.6,22h13.8L502.7,215C505.2,213.9,507.1,212.3,508.5,210.1z M488.5,209.3v-11.5
		c3.1,0.1,5.3,0.6,6.7,1.6c1.3,1,2,2.6,2,4.8C497.1,207.5,494.2,209.2,488.5,209.3z M518.2,194.2c-4.7,4.7-7.1,10.6-7.1,17.9
		c0,7.7,2.3,14,7,18.8c4.7,4.8,10.8,7.2,18.4,7.2c2.2,0,4.7-0.4,7.4-1.1v-11.5c-2.5,0.7-4.6,1.1-6.5,1.1c-3.8,0-6.7-1.3-9-3.8
		c-2.3-2.6-3.4-6-3.4-10.3c0-4,1.1-7.4,3.3-9.9c2.3-2.6,5-3.9,8.4-3.9c2.2,0,4.5,0.4,7.1,1.1v-11.5c-2.3-0.6-5-0.9-7.7-0.9
		C529,187.2,523,189.5,518.2,194.2z M560.5,226.4v-8.8h11.6v-10h-11.6v-8.9h13.4v-10.3h-26.4v48.3H574v-10.3L560.5,226.4
		L560.5,226.4z"/>
</g>
</svg>
